<svg xmlns="http://www.w3.org/2000/svg" width="16" height="16" viewBox="0 0 768 768"><path fill="context-fill" fill-opacity="context-fill-opacity" d="M128 352v-64c0-26.528 10.72-50.464 28.128-67.872s41.344-28.128 67.872-28.128h370.752l-73.376 73.376c-12.512 12.512-12.512 32.768 0 45.248s32.768 12.512 45.248 0l128-128c3.072-3.072 5.376-6.592 6.944-10.368s2.432-7.904 2.432-12.256c0-4.16-0.8-8.352-2.432-12.256-1.568-3.776-3.872-7.296-6.944-10.368l-128-128c-12.512-12.512-32.768-12.512-45.248 0s-12.512 32.768 0 45.248l73.376 73.376h-370.752c-44.16 0-84.224 17.952-113.152 46.848s-46.848 68.992-46.848 113.152v64c0 17.664 14.336 32 32 32s32-14.336 32-32zM640 416v64c0 26.528-10.72 50.464-28.128 67.872s-41.344 28.128-67.872 28.128h-370.752l73.376-73.376c12.512-12.512 12.512-32.768 0-45.248s-32.768-12.512-45.248 0l-128 128c-2.944 2.944-5.312 6.464-6.944 10.368s-2.432 8.096-2.432 12.256c0 8.192 3.136 16.384 9.376 22.624l128 128c12.512 12.512 32.768 12.512 45.248 0s12.512-32.768 0-45.248l-73.376-73.376h370.752c44.16 0 84.224-17.952 113.152-46.848s46.848-68.992 46.848-113.152v-64c0-17.664-14.336-32-32-32s-32 14.336-32 32z"></path></svg>