<svg width="16" height="16" xmlns="http://www.w3.org/2000/svg" fill="context-fill" fill-opacity="context-fill-opacity">
 <g>
  <title>Layer 1</title>
  <path d="m10.68564,0.64831c-0.9384,-0.94182 -2.52028,-0.70762 -3.14558,0.4657l-2.66275,4.99643l-3.70503,1.23501c-0.21671,0.07224 -0.38056,0.25152 -0.43304,0.47385c-0.05249,0.22231 0.01388,0.45595 0.17541,0.61748l2.82942,2.82946l-3.48853,3.48845l-0.19305,1.1252l1.12515,-0.19311l3.48853,-3.48845l2.82941,2.82936c0.16152,0.16161 0.39515,0.22791 0.61748,0.17545c0.22231,-0.05246 0.4016,-0.21631 0.47384,-0.43302l1.23525,-3.70569l4.98047,-2.66632c1.16818,-0.62537 1.40268,-2.20023 0.46743,-3.13884l-4.59441,-4.61095zm-1.98228,1.08566c0.20843,-0.39111 0.73572,-0.46917 1.04854,-0.15523l4.59447,4.61095c0.31175,0.31286 0.23345,0.83781 -0.15581,1.04627l-5.21181,2.79007c-0.14851,0.0795 -0.26094,0.21283 -0.3142,0.37264l-0.98096,2.94279l-5.08277,-5.08271l2.94285,-0.98094c0.16021,-0.05341 0.29381,-0.16626 0.37323,-0.3153l2.78645,-5.22855z"/>
 </g>
</svg>
