<svg width="32" height="32" xmlns="http://www.w3.org/2000/svg" fill="context-fill" fill-opacity="context-fill-opacity">
 <g>
  <title>Layer 1</title>
  <path d="m22.32418,1.56472c-2.36792,-2.36787 -6.35974,-1.72008 -7.85732,1.27506l-3.89468,7.78954c-0.2182,0.4364 -0.60087,0.76829 -1.06376,0.92259l-6.1113,2.03712c-1.72995,0.57659 -2.24827,2.77218 -0.95883,4.06161l5.08857,5.08858l-7.46434,7.46434l0,1.73454l1.73455,0l7.46433,-7.46434l5.08858,5.08858c1.28944,1.28944 3.48503,0.77111 4.06161,-0.95889l2.03712,-6.11125c0.1543,-0.46289 0.48619,-0.84544 0.92259,-1.06376l7.78949,-3.89468c2.99516,-1.49758 3.643,-5.4894 1.27509,-7.85727l-8.1117,-8.11177zm-5.6632,2.3721c0.74879,-1.49758 2.7447,-1.82146 3.92866,-0.63753l8.1117,8.1117c1.18396,1.18396 0.86003,3.17987 -0.63754,3.92866l-7.78949,3.89481c-1.01838,0.50913 -1.79268,1.40203 -2.15278,2.4821l-2.037,6.11125l-11.91167,-11.9117l6.11122,-2.037c1.08007,-0.36011 1.97298,-1.13441 2.4821,-2.15278l3.89481,-7.7895z"/>
 </g>
</svg>
