<?xml version="1.0" encoding="UTF-8"?>
<svg xmlns="http://www.w3.org/2000/svg" viewBox="0 0 32 32" fill="context-fill" fill-opacity="context-fill-opacity">
  <path d="M23.029,1.412c-2.206-2.206-5.926-1.603-7.321,1.188l-3.629,7.258c-.203.407-.56.716-.991.86l-5.694,1.898c-1.612.537-2.095,2.583-.893,3.785l4.741,4.741-6.955,6.955v1.616h1.616l6.955-6.955,4.741,4.741c1.201,1.201,3.247.719,3.785-.893l1.898-5.694c.144-.431.453-.788.86-.991l7.258-3.629c2.791-1.395,3.394-5.115,1.188-7.321l-7.558-7.558ZM17.752,3.623c.698-1.395,2.557-1.697,3.661-.594l7.558,7.558c1.103,1.103.801,2.963-.594,3.661l-7.258,3.629c-.949.474-1.67,1.306-2.006,2.313l-1.898,5.694L6.116,14.785l5.694-1.898c1.006-.336,1.838-1.057,2.313-2.006l3.629-7.258Z"/>
</svg>
