<svg width="16" height="16" viewBox="0 0 16 16" xmlns="http://www.w3.org/2000/svg" fill="context-fill" fill-opacity="context-fill-opacity">
  <path d="M0,4.6c0-1.3,1-2.3,2.3-2.3h9.1c1.3,0,2.3,1,2.3,2.3v4.6c0,1.3-1,2.3-2.3,2.3H2.3c-1.3,0-2.3-1-2.3-2.3v-4.6ZM2.3,3.4c-.6,0-1.1.5-1.1,1.1v4.6c0,.6.5,1.1,1.1,1.1h9.1c.6,0,1.1-.5,1.1-1.1v-4.6c0-.6-.5-1.1-1.1-1.1H2.3ZM2.6,12.6c.4.7,1.1,1.1,2,1.1h6.9c2.5,0,4.6-2,4.6-4.6v-2.3c0-.8-.5-1.6-1.1-2v4.3c0,1.9-1.5,3.4-3.4,3.4H2.6ZM4.9,6.5c-.2,0-.4.2-.4.4s.2.4.4.4h3.9c.2,0,.4-.2.4-.4s-.2-.4-.4-.4h-3.9Z"/>
</svg>
