<?xml version="1.0" encoding="UTF-8"?>
<svg xmlns="http://www.w3.org/2000/svg" viewBox="0 0 16 16" fill="context-fill" fill-opacity="context-fill-opacity">
  <path d="m8.5,0.5c0,-0.27614 -0.2239,-0.5 -0.5,-0.5c-0.27614,0 -0.5,0.22386 -0.5,0.5l0,6c0,0.27614 0.22386,0.5 0.5,0.5c0.2761,0 0.5,-0.22386 0.5,-0.5l0,-6zm3.2432,1.50089c-0.2393,-0.13782 -0.545,-0.05556 -0.6828,0.18373c-0.1378,0.23929 -0.0556,0.545 0.1837,0.68282c1.2402,0.71428 2.2099,1.8179 2.7588,3.13962c0.5489,1.32172 0.6463,2.78764 0.2769,4.17034c-0.3693,1.3827 -1.1846,2.6048 -2.3195,3.4768c-1.1348,0.872 -2.5257,1.3451 -3.9569,1.3458c-1.43116,0.0008 -2.82256,-0.4709 -3.95832,-1.3416c-1.13576,-0.8708 -1.95238,-2.0921 -2.32315,-3.4744c-0.37078,-1.3823 -0.27498,-2.84836 0.27253,-4.17065c0.54751,-1.3223 1.51612,-2.42693 2.75554,-3.14251c0.23915,-0.13807 0.32109,-0.44387 0.18302,-0.68301c-0.13807,-0.23915 -0.44387,-0.32109 -0.68302,-0.18302c-1.4301,0.82567 -2.54773,2.10025 -3.17947,3.62597c-0.63174,1.52573 -0.74228,3.21732 -0.31446,4.81222c0.42781,1.595 1.37006,3.0042 2.68056,4.0089c1.31049,1.0048 2.91596,1.549 4.56727,1.5481c1.6514,-0.0009 3.2563,-0.5467 4.5657,-1.5528c1.3094,-1.0062 2.2502,-2.4163 2.6764,-4.0117c0.4261,-1.5955 0.3138,-3.2869 -0.3195,-4.81197c-0.6334,-1.52506 -1.7523,-2.79846 -3.1833,-3.62264z"/>
</svg>