<svg width="32" height="32" xmlns="http://www.w3.org/2000/svg" fill="context-fill" fill-opacity="context-fill-opacity">
 <g>
  <title>Layer 1</title>
  <path d="m20.73401,22.3324l-1.38687,4.16037c-0.53148,1.59466 -2.55531,2.07244 -3.74387,0.88388l-4.6905,-4.6905l-6.88038,6.88041l-1.59887,0l0,-1.59885l6.88041,-6.88041l-4.69049,-4.69038c-1.18857,-1.18857 -0.7108,-3.21251 0.88383,-3.74399l4.16029,-1.38675l-9.16438,-9.16413c-0.44152,-0.44151 -0.44152,-1.15735 -0.00002,-1.59887c0.44151,-0.44152 1.15735,-0.44152 1.59887,-0.00002l29.39508,29.39443c0.44149,0.44149 0.44149,1.15736 0,1.59885c-0.44149,0.44149 -1.15736,0.44149 -1.59885,0l-9.16426,-9.16404zm-1.78765,-1.78754l-7.49125,-7.49114l-5.2328,1.74424l10.97981,10.97984l1.74424,-5.23294zm9.2979,-6.27827l-6.65384,3.32692l1.68534,1.68534l5.9798,-2.98978c2.76073,-1.38042 3.3579,-5.05997 1.17522,-7.24259l-7.47712,-7.47717c-2.18267,-2.18263 -5.86222,-1.58553 -7.24264,1.17531l-2.9899,5.97987l1.68534,1.68529l3.32703,-6.65396c0.69021,-1.38041 2.52998,-1.67897 3.62132,-0.58766l7.47712,7.47723c1.09134,1.09122 0.79275,2.931 -0.58767,3.62121z"/>
 </g>
</svg>
