<?xml version="1.0" encoding="UTF-8"?>
<svg xmlns="http://www.w3.org/2000/svg" viewBox="0 0 32 32" fill="context-fill" fill-opacity="context-fill-opacity">
  <path d="M20.785,22.402l-1.402,4.206c-.537,1.612-2.583,2.095-3.785.893l-4.741-4.742-6.955,6.955h-1.616v-1.616l6.955-6.955-4.741-4.741c-1.201-1.202-.719-3.247.893-3.785l4.205-1.402L.335,1.951c-.446-.446-.446-1.17,0-1.616.446-.446,1.17-.446,1.616,0l29.714,29.714c.446.446.446,1.17,0,1.616s-1.17.446-1.616,0l-9.264-9.264ZM18.978,20.595l-7.573-7.573-5.29,1.763,11.099,11.099,1.763-5.29ZM28.377,14.248l-6.726,3.363,1.704,1.704,6.045-3.022c2.791-1.395,3.394-5.115,1.188-7.321l-7.558-7.559c-2.206-2.206-5.926-1.603-7.321,1.188l-3.022,6.045,1.704,1.704,3.363-6.726c.698-1.395,2.557-1.697,3.661-.594l7.558,7.559c1.103,1.103.801,2.963-.594,3.661Z"/>
</svg>
