<svg width="16" height="16" xmlns="http://www.w3.org/2000/svg" fill="context-fill" fill-opacity="context-fill-opacity">
 <g>
  <title>Layer 1</title>
  <path d="m9.72784,10.48977l5.21184,5.21191c0.22194,0.22183 0.58173,0.22183 0.80367,0c0.22183,-0.22194 0.22183,-0.58173 0,-0.80367l-14.77337,-14.77326c-0.2219,-0.22191 -0.58166,-0.22191 -0.80355,0c-0.22191,0.2219 -0.22191,0.58166 0,0.80355l5.21132,5.21133l-0.09049,0.1698l-3.1941,1.0647c-0.18683,0.06228 -0.32808,0.21685 -0.37332,0.4085c-0.04525,0.19166 0.01197,0.39307 0.15122,0.53233l2.43924,2.43923l-3.00746,3.00751l-0.16643,0.96992l0.96999,-0.16637l3.00746,-3.00751l2.43923,2.4393c0.13924,0.13921 0.34066,0.19637 0.53233,0.15114c0.19166,-0.04523 0.34622,-0.18648 0.40849,-0.37331l1.06491,-3.19467l0.16902,-0.09046zm-0.83956,-0.83959l-0.06517,0.0349c-0.12803,0.06854 -0.22495,0.18348 -0.27087,0.32125l-0.84568,2.53704l-4.38186,-4.38187l2.53703,-0.84567c0.13812,-0.04605 0.25329,-0.14334 0.32176,-0.27182l0.03429,-0.06434l2.6705,2.6705zm4.42793,-2.37042l-2.33441,1.24967l0.83958,0.83956l2.0311,-1.08735c1.00709,-0.53912 1.20925,-1.89681 0.40297,-2.70599l-3.96084,-3.9751c-0.809,-0.81193 -2.17273,-0.61004 -2.7118,0.40148l-1.0876,2.0408l0.84003,0.84003l1.25045,-2.34637c0.17969,-0.33717 0.63426,-0.40447 0.90394,-0.13382l3.9609,3.9751c0.26876,0.26973 0.20126,0.72228 -0.13432,0.90199z"/>
 </g>
</svg>
